HIERARCHY
ROOT Hips
{
	OFFSET 0.00 0.00 0.00
	CHANNELS 6 Xposition Yposition Zposition Xrotation Yrotation Zrotation
	JOINT Spine
	{
		OFFSET 0.00000 7.53995 0.00000
		CHANNELS 3 Xrotation Yrotation Zrotation
		JOINT Head
		{
			OFFSET 0.00000 15.09381 0.00000
			CHANNELS 3 Xrotation Yrotation Zrotation
			End Site
			{
				OFFSET 0.00000 4.52755 0.00000
			}
		}
		JOINT LeftShoulder
		{
			OFFSET 0.00000 9.73893 0.00000
			CHANNELS 3 Xrotation Yrotation Zrotation
			JOINT LeftArm
			{
				OFFSET 7.08401 0.00000 0.00000
				CHANNELS 3 Xrotation Yrotation Zrotation
				JOINT LeftForeArm
				{
					OFFSET 10.25932 0.00000 0.00000
					CHANNELS 3 Yrotation Zrotation Xrotation
					JOINT LeftHand
					{
						OFFSET 9.89698 0.00000 0.00000
						CHANNELS 3 Xrotation Yrotation Zrotation
						JOINT LeftHandThumb1
						{
							OFFSET 0.00000 0.00000 0.00000
							CHANNELS 3 Xrotation Zrotation Yrotation
							End Site
							{
								OFFSET 0.00000 0.00000 3.93700
							}
						}
						End Site
						{
							OFFSET 3.93700 0.00000 0.00000
						}
					}
				}
			}
		}
		JOINT RightShoulder
		{
			OFFSET 0.00000 9.73893 0.00000
			CHANNELS 3 Xrotation Yrotation Zrotation
			JOINT RightArm
			{
				OFFSET -7.08401 0.00000 0.00000
				CHANNELS 3 Xrotation Yrotation Zrotation
				JOINT RightForeArm
				{
					OFFSET -10.25932 0.00000 0.00000
					CHANNELS 3 Yrotation Zrotation Xrotation
					JOINT RightHand
					{
						OFFSET -9.89698 0.00000 0.00000
						CHANNELS 3 Xrotation Yrotation Zrotation
						JOINT RightHandThumb1
						{
							OFFSET 0.00000 0.00000 0.00000
							CHANNELS 3 Xrotation Zrotation Yrotation
							End Site
							{
								OFFSET 0.00000 0.00000 3.93700
							}
						}
						End Site
						{
							OFFSET -3.93700 0.00000 0.00000
						}
					}
				}
			}
		}
	}
	JOINT LeftUpLeg
	{
		OFFSET 3.34548 0.00000 0.00000
		CHANNELS 3 Xrotation Yrotation Zrotation
		JOINT LeftLeg
		{
			OFFSET 0.00000 -19.11473 0.00000
			CHANNELS 3 Xrotation Yrotation Zrotation
			JOINT LeftFoot
			{
				OFFSET 0.00000 -16.04560 0.00000
				CHANNELS 3 Xrotation Yrotation Zrotation
				JOINT LeftToeBase
				{
					OFFSET 0.00000 -1.43467 5.35428
					CHANNELS 3 Xrotation Yrotation Zrotation
					End Site
					{
						OFFSET 0.00000 0.00000 2.95275
					}
				}
			}
		}
	}
	JOINT RightUpLeg
	{
		OFFSET -3.34548 0.00000 0.00000
		CHANNELS 3 Xrotation Yrotation Zrotation
		JOINT RightLeg
		{
			OFFSET 0.00000 -19.11473 0.00000
			CHANNELS 3 Xrotation Yrotation Zrotation
			JOINT RightFoot
			{
				OFFSET 0.00000 -16.04560 0.00000
				CHANNELS 3 Xrotation Yrotation Zrotation
				JOINT RightToeBase
				{
					OFFSET 0.00000 -1.43467 5.35428
					CHANNELS 3 Xrotation Yrotation Zrotation
					End Site
					{
						OFFSET 0.00000 0.00000 2.95275
					}
				}
			}
		}
	}
}
MOTION
Frames:	20
Frame Time: 0.008333
-3.8623 37.2755 0.0115 8.8452 -35.8484 10.1589 2.7497 -2.3137 -2.9586 10.5289 9.6869 -7.2635 20.3882 7.5250 -1.3017 -1.8693 -27.5904 -63.0593 -27.7436 0.0000 173.3385 -0.0116 -0.4460 -1.4939 32.8623 0.0000 24.3270 -10.5467 -1.0271 -8.9824 -11.2266 -10.4723 53.9854 104.8733 0.0000 6.3926 -8.6017 -11.3950 -37.4388 33.1476 -0.0000 -26.2537 -48.4872 -6.6168 -5.0583 71.7593 -0.0000 -0.0000 -2.5720 -1.8650 -10.9378 0.1938 -0.0000 -0.0000 -10.2225 10.2947 -2.2715 9.6097 -0.0000 -0.0000 -12.6036 12.3485 19.4997 15.0513 -0.0000 -0.0000
-3.8744 37.2776 0.0296 8.9173 -36.0182 10.2606 2.5395 -2.2844 -3.1129 10.5505 9.7661 -7.1803 20.4389 7.5878 -1.2930 -1.8149 -27.5928 -63.0422 -27.6786 -0.0000 173.3523 -0.0091 -0.3857 -1.3560 32.8623 0.0000 24.3270 -10.4997 -1.0879 -8.8674 -11.1303 -10.3769 54.1052 104.9078 0.0000 6.5647 -8.5931 -11.4278 -37.3322 33.1476 -0.0000 -26.2537 -48.5266 -6.8246 -4.9877 74.7632 -0.0000 -0.0000 -2.0979 -1.9517 -10.8661 0.1139 -0.0000 -0.0000 -10.2261 10.3968 -2.3062 9.6021 -0.0000 -0.0000 -12.5703 12.5710 19.3180 14.6201 -0.0000 -0.0000
-3.8850 37.2801 0.0464 8.9429 -36.0991 10.3246 2.3737 -2.3480 -3.2431 10.5255 9.8171 -7.1342 20.4643 7.6311 -1.2863 -1.7479 -27.5609 -63.0199 -27.6388 0.0000 173.4391 -0.0080 -0.3968 -1.1582 32.8623 0.0000 24.3270 -10.4706 -1.1484 -8.7592 -11.0420 -10.2697 54.2240 104.9106 0.0000 6.7007 -8.6044 -11.3941 -37.4496 33.1476 -0.0000 -26.2537 -48.5288 -7.0780 -4.9874 77.7828 -0.0000 -0.0000 -1.6649 -2.0880 -10.5953 0.2662 -0.0000 -0.0000 -10.1937 10.4100 -2.3536 9.5805 -0.0000 -0.0000 -12.5923 12.6579 19.3446 14.6363 -0.0000 -0.0000
-3.8941 37.2829 0.0648 8.9932 -36.2133 10.4157 2.1835 -2.3907 -3.3805 10.4877 9.8596 -7.0644 20.4794 7.6579 -1.2864 -1.6601 -27.4966 -63.0021 -27.5880 -0.0000 173.5457 -0.0065 -0.4043 -0.9227 32.8623 0.0000 24.3270 -10.4400 -1.1790 -8.6628 -10.9540 -10.2052 54.3518 104.9137 0.0000 6.8857 -8.5942 -11.4340 -37.3210 33.1476 -0.0000 -26.2537 -48.5086 -7.2985 -4.9787 80.7934 -0.0000 -0.0000 -1.1664 -2.2521 -10.2751 0.2900 -0.0000 -0.0000 -10.1787 10.4434 -2.4107 9.5444 -0.0000 -0.0000 -12.6076 12.7066 19.3345 14.6083 -0.0000 -0.0000
-3.9039 37.2868 0.0823 9.1500 -36.3534 10.5870 1.8830 -2.3644 -3.5671 10.5030 9.9628 -6.9452 20.5268 7.6778 -1.2510 -1.5455 -27.5002 -62.9674 -27.5300 -0.0000 173.5217 -0.0053 -0.3862 -0.7792 32.8623 0.0000 24.3270 -10.3840 -1.2522 -8.5408 -10.8456 -10.1452 54.4765 104.9120 -0.0000 7.0216 -8.5742 -11.4005 -37.3357 33.1476 -0.0000 -26.2537 -48.5253 -7.5162 -4.9422 83.8198 -0.0000 -0.0000 -0.7351 -2.4069 -10.1542 0.7354 -0.0000 -0.0000 -10.2470 10.5457 -2.4742 9.5373 -0.0000 -0.0000 -12.6279 12.7476 19.4225 14.4978 -0.0000 -0.0000
-3.9105 37.2910 0.0977 9.2867 -36.4593 10.7379 1.6226 -2.3759 -3.7230 10.4457 10.0011 -6.8898 20.5845 7.7091 -1.2428 -1.5012 -27.4805 -62.9476 -27.4579 -0.0000 173.5999 -0.0071 -0.4833 -0.8474 32.8623 0.0000 24.3270 -10.3505 -1.3375 -8.4355 -10.7569 -10.0780 54.6148 104.8934 0.0000 7.2598 -8.6358 -11.4424 -37.4364 33.1476 -0.0000 -26.2537 -48.5013 -7.7275 -4.9343 86.8380 -0.0000 -0.0000 -0.3537 -2.5289 -9.9058 0.7061 -0.0000 -0.0000 -10.3059 10.6085 -2.5441 9.5178 -0.0000 -0.0000 -12.6919 12.6680 19.8604 15.0738 -0.0000 -0.0000
-3.9160 37.2959 0.1128 9.3714 -36.4777 10.8589 1.4179 -2.4933 -3.8717 10.3537 10.0579 -6.8427 20.6367 7.7629 -1.2500 -1.4812 -27.4876 -62.9119 -27.3634 0.0000 173.7311 -0.0052 -0.4269 -0.6996 32.8623 0.0000 24.3270 -10.3271 -1.4102 -8.3195 -10.7093 -10.0937 54.7231 104.9140 0.0000 7.1932 -8.4732 -11.3925 -37.0229 33.1476 -0.0000 -26.2537 -48.4344 -8.0553 -4.9972 89.8598 -0.0000 -0.0000 -0.0207 -2.6826 -10.0985 0.5477 -0.0000 -0.0000 -10.3239 10.5505 -2.6366 9.4826 -0.0000 -0.0000 -12.7178 12.7588 20.0402 15.2483 -0.0000 -0.0000
-3.9231 37.3005 0.1273 9.4926 -36.5361 10.9895 1.1732 -2.5522 -4.0129 10.3104 10.1155 -6.7802 20.6807 7.8034 -1.2361 -1.4384 -27.5064 -62.8967 -27.2658 0.0000 173.7813 -0.0040 -0.3776 -0.6038 32.8623 0.0000 24.3270 -10.2954 -1.4748 -8.0805 -10.8115 -10.1078 54.7353 104.9191 -0.0000 7.4795 -8.5999 -11.5950 -36.9590 33.1476 -0.0000 -26.2537 -48.3478 -8.3491 -5.0208 92.8566 -0.0000 -0.0000 0.2512 -2.7833 -10.2481 0.1461 -0.0000 -0.0000 -10.3669 10.5705 -2.7046 9.4598 -0.0000 -0.0000 -12.7946 12.8053 20.1471 15.8160 -0.0000 -0.0000
-3.9270 37.3073 0.1406 9.7680 -36.6188 11.2598 0.7651 -2.5618 -4.2272 10.3016 10.1705 -6.6874 20.7427 7.8484 -1.2126 -1.3374 -27.5078 -62.8483 -27.2000 -0.0000 173.8377 -0.0036 -0.3946 -0.5243 32.8623 0.0000 24.3270 -10.2271 -1.5654 -7.8162 -10.8886 -10.1239 54.7482 104.9425 0.0000 7.4887 -8.7277 -11.7259 -37.0669 33.1476 -0.0000 -26.2537 -48.3103 -8.5651 -5.0416 95.8293 -0.0000 -0.0000 0.4104 -3.0586 -9.9947 0.2992 -0.0000 -0.0000 -10.5411 10.6049 -2.8175 9.4319 -0.0000 -0.0000 -12.7815 12.9153 20.4139 15.7966 -0.0000 -0.0000
-3.9292 37.3152 0.1511 10.0219 -36.6851 11.4977 0.4012 -2.5825 -4.4027 10.2678 10.2187 -6.6318 20.7708 7.8554 -1.2019 -1.2112 -27.4752 -62.7762 -27.1528 0.0000 173.8242 -0.0029 -0.4501 -0.3724 32.8623 0.0000 24.3270 -10.1444 -1.6883 -7.7890 -10.9482 -10.1888 55.0517 104.8485 0.0000 7.5320 -8.7309 -11.7702 -36.9747 33.1476 -0.0000 -26.2537 -48.2262 -8.7977 -5.0398 98.7483 -0.0000 -0.0000 0.9991 -3.7418 -8.3803 -0.8847 0.0000 -0.0000 -10.6808 10.7183 -2.9166 9.3768 -0.0000 -0.0000 -12.8247 12.7515 20.8419 16.0792 -0.0000 -0.0000
-3.9273 37.3225 0.1587 10.2734 -36.6759 11.7312 0.0524 -2.6743 -4.5641 10.1818 10.2702 -6.5932 20.8291 7.8913 -1.1924 -1.1638 -27.4790 -62.7387 -27.0961 -0.0000 173.8660 -0.0023 -0.4511 -0.2957 32.8623 0.0000 24.3270 -10.1062 -1.7949 -7.7019 -10.9348 -10.1863 55.2057 104.7893 0.0000 7.6164 -8.6976 -11.7297 -36.9612 33.1476 -0.0000 -26.2537 -48.1597 -9.0988 -5.0949 101.6270 -0.0000 -0.0000 1.2021 -4.0385 -8.2388 -0.9320 0.0000 -0.0000 -10.8608 10.6557 -3.0332 9.3564 -0.0000 -0.0000 -12.8063 12.9025 21.0711 16.1261 -0.0000 -0.0000
-3.9272 37.3302 0.1692 10.5221 -36.7152 11.9694 -0.2894 -2.7209 -4.7340 10.1213 10.3266 -6.5357 20.8666 7.9346 -1.1808 -1.1074 -27.4582 -62.7202 -27.0363 -0.0000 173.8989 -0.0011 -0.4097 -0.1480 32.8623 0.0000 24.3270 -10.0553 -1.9072 -7.6048 -10.9166 -10.1391 55.3304 104.7175 0.0000 7.7377 -8.8435 -11.8009 -37.2629 33.1476 -0.0000 -26.2537 -48.0227 -9.3184 -5.1152 104.4934 -0.0000 -0.0000 1.3606 -4.3031 -7.5682 -0.9484 0.0000 -0.0000 -11.0151 10.6866 -3.1379 9.3277 -0.0000 -0.0000 -12.8758 12.9693 21.0554 16.4773 -0.0000 -0.0000
-3.9237 37.3405 0.1756 10.9537 -36.7705 12.3593 -0.8211 -2.6843 -4.9584 10.1428 10.3332 -6.4700 20.9606 7.9686 -1.1622 -1.0454 -27.4412 -62.6699 -26.9837 -0.0000 174.0136 -0.0010 -0.4661 -0.1285 32.8623 0.0000 24.3270 -9.9875 -2.0431 -7.5691 -10.7750 -10.2624 55.5978 104.7393 0.0000 7.5834 -8.6130 -11.6431 -36.8893 33.1476 -0.0000 -26.2537 -47.9821 -9.5077 -5.1160 107.2938 -0.0000 -0.0000 1.5106 -4.8264 -6.7258 0.8951 -0.0000 -0.0000 -11.3322 10.7379 -3.2737 9.3199 -0.0000 -0.0000 -12.8712 13.0800 21.1947 16.6350 -0.0000 -0.0000
-3.9211 37.3494 0.1847 11.1187 -36.7667 12.5687 -1.0608 -2.7650 -5.1514 10.0890 10.3752 -6.4439 20.9852 7.9688 -1.1334 -1.0133 -27.4345 -62.6297 -26.9129 -0.0000 174.0414 -0.0012 -0.5373 -0.1279 32.8623 0.0000 24.3270 -9.9622 -2.1397 -7.5556 -10.6722 -10.2845 55.8258 104.6612 0.0000 7.6295 -8.5264 -11.5020 -36.9379 33.1476 -0.0000 -26.2537 -47.7345 -9.7726 -5.1815 110.0413 -0.0000 -0.0000 1.7319 -5.1713 -6.2269 0.6832 -0.0000 -0.0000 -11.4262 10.6565 -3.4097 9.2825 -0.0000 -0.0000 -12.7895 13.3638 21.2278 16.1928 -0.0000 -0.0000
-3.9144 37.3630 0.1875 11.4290 -36.7486 12.8866 -1.4449 -2.8220 -5.3808 10.0434 10.3879 -6.3989 21.0203 7.9654 -1.1152 -0.9512 -27.3508 -62.5710 -26.8930 0.0000 173.9607 -0.0003 -0.5063 -0.0289 32.8623 0.0000 24.3270 -9.8832 -2.2403 -7.4512 -10.6566 -10.4170 55.9934 104.6527 -0.0000 7.4709 -8.4170 -11.4198 -36.7721 33.1476 -0.0000 -26.2537 -47.5194 -10.0257 -5.1982 112.6688 -0.0000 -0.0000 1.8667 -5.6501 -5.5720 0.1549 -0.0000 -0.0000 -11.5508 10.9480 -3.5597 9.0905 -0.0000 -0.0000 -12.6776 13.1762 21.2560 16.2251 -0.0000 -0.0000
-3.9088 37.3744 0.1968 11.7506 -36.7805 13.2348 -1.8395 -2.8176 -5.6318 10.0043 10.4112 -6.3487 21.0622 7.9886 -1.0761 -0.9204 -27.2982 -62.5457 -26.8241 0.0000 174.0964 0.0002 -0.4979 0.0181 32.8623 0.0000 24.3270 -9.8151 -2.3510 -7.4241 -10.5510 -10.4414 56.1759 104.6027 -0.0000 7.4800 -8.3873 -11.3826 -36.7620 33.1476 -0.0000 -26.2537 -47.2950 -10.2133 -5.2344 115.2549 -0.0000 -0.0000 2.1012 -6.0778 -5.1948 0.2823 -0.0000 -0.0000 -11.7093 11.1611 -3.7227 8.9770 -0.0000 -0.0000 -12.6348 13.0703 21.3239 16.3079 -0.0000 -0.0000
-3.8990 37.3833 0.2042 11.9482 -36.7235 13.5122 -2.0922 -2.9216 -5.8743 9.9013 10.4600 -6.2928 21.0928 8.0035 -1.0307 -0.9213 -27.3000 -62.5275 -26.7719 0.0000 174.0825 0.0002 -0.4863 0.0191 32.8623 0.0000 24.3270 -9.8194 -2.4203 -7.4824 -10.3611 -10.5356 56.4632 104.5629 -0.0000 7.5846 -8.3145 -11.3474 -36.6031 33.1476 -0.0000 -26.2537 -47.0115 -10.4705 -5.3484 117.7551 -0.0000 -0.0000 2.4713 -6.3648 -4.8633 0.1021 -0.0000 -0.0000 -11.9781 10.5884 -3.9251 9.1764 -0.0000 -0.0000 -12.7393 13.6795 21.4188 16.3349 -0.0000 -0.0000
-3.8878 37.3949 0.2084 12.2603 -36.6881 13.8521 -2.4515 -2.9560 -6.1073 9.8354 10.4459 -6.2312 21.1192 8.0188 -1.0011 -0.8824 -27.2897 -62.4811 -26.7585 0.0000 174.0124 -0.0005 -0.4952 -0.0546 32.8623 0.0000 24.3270 -9.7772 -2.4902 -7.4518 -10.2729 -10.6568 56.6094 104.5595 0.0000 7.6296 -8.3935 -11.3792 -36.7908 33.1476 -0.0000 -26.2537 -46.8066 -10.6956 -5.4272 120.1686 -0.0000 -0.0000 2.9171 -6.7055 -4.5541 1.0850 -0.0000 -0.0000 -12.2263 10.4875 -4.1033 9.1853 -0.0000 -0.0000 -12.7309 13.8641 21.4384 16.3392 -0.0000 -0.0000
-3.8759 37.4073 0.2112 12.5861 -36.6619 14.1924 -2.8083 -2.9786 -6.3315 9.7798 10.4431 -6.1868 21.1385 8.0296 -0.9657 -0.8727 -27.2411 -62.4502 -26.7216 0.0000 174.0540 0.0002 -0.5018 0.0235 32.8623 0.0000 24.3270 -9.7576 -2.5475 -7.3953 -10.2005 -10.7773 56.7149 104.5631 0.0000 7.6627 -8.3897 -11.3705 -36.7989 33.1476 -0.0000 -26.2537 -46.5778 -10.8773 -5.4790 122.4715 -0.0000 -0.0000 3.4558 -6.9692 -4.1602 0.7381 -0.0000 -0.0000 -12.4841 10.4473 -4.2668 9.1808 -0.0000 -0.0000 -12.7428 13.8444 21.7570 16.8422 -0.0000 -0.0000
-3.8658 37.4194 0.2139 12.8544 -36.6140 14.4931 -3.1073 -3.0169 -6.5525 9.7168 10.4417 -6.1414 21.1528 8.0218 -0.9217 -0.8559 -27.2001 -62.4253 -26.7010 0.0000 173.9731 -0.0003 -0.5138 -0.0339 32.8623 0.0000 24.3270 -9.6868 -2.6042 -7.3692 -10.1411 -10.9545 56.8870 104.5904 0.0000 7.6865 -8.4105 -11.4523 -36.6737 33.1476 -0.0000 -26.2537 -46.3177 -11.0963 -5.5425 124.6476 -0.0000 -0.0000 4.1595 -7.4636 -3.6450 1.1414 -0.0000 -0.0000 -12.6593 10.4973 -4.4278 9.1114 -0.0000 -0.0000 -12.6865 13.8835 21.8275 17.0608 -0.0000 -0.0000
